# xmcd
#
# Track frame offsets:
#	183
#	13300
#	29033
#	43570
#	58463
#	70558
#	84733
#	97110
#	111585
#	126348
#	140545
#	155013
#	168673
#	182990
#	194108
#
# Disc length: 2761 seconds
#
# Revision: 1
# Processed by: cddbd v1.5.2PL0 Copyright (c) Steve Scherf et al.
# Submitted via: EasyCDDAExtractor 16.0.6.1
#
DISCID=f20ac70f
DTITLE=Various Artist - Canzoni Italiane - CD68 - Abbassa la Tua Radio
DYEAR=1900
DGENRE=Blues
TTITLE0=S. Fioresi - L'Uccellino della Radio
TTITLE1=A. Rabagliati - Quando la Radio
TTITLE2=N. Bruni - Silenzioso Slow
TTITLE3=E. Bonino - Trio Lescano - LaFamigliaCanterina
TTITLE4=B. Gigli - Cinefollia
TTITLE5=E. Bonino - A quindici anni
TTITLE6=N. Otto - Birimbo Birambo
TTITLE7=E. Bonino - Conosci mia cugina?
TTITLE8=J. Cacciagli - Note e dì
TTITLE9=M. Jottini - Trio Lescano - MaramaoPerchèSeiMorto
TTITLE10=N. Otto - Mister Paganini
TTITLE11=Quartetto Stars - Il Re del Portogallo
TTITLE12=B. Gigli - Valzer della Felicità
TTITLE13=A. Togliani - Chi siete
TTITLE14=Trio Lescano - La gelosia non è più di moda
EXTD=
EXTT0=
EXTT1=
EXTT2=
EXTT3=
EXTT4=
EXTT5=
EXTT6=
EXTT7=
EXTT8=
EXTT9=
EXTT10=
EXTT11=
EXTT12=
EXTT13=
EXTT14=
PLAYORDER=
